<?xml version="1.0" standalone="yes"?>
<svg width="180" height="180">
<path style="fill:#000000; stroke:none;" d="M0 0L0 74L1 74C5.5904 38.4538 38.4539 5.59052 74 1L51 0L0 0z"/>
<path style="fill:#5555ff; stroke:none;" d="M74 0.46373C61.9183 2.58377 50.3822 7.44429 40 13.9151C30.806 19.6454 22.9938 27.2625 16.6412 36C-30.4702 100.799 26.6256 193.465 106 179.536C118.082 177.416 129.618 172.556 140 166.085C149.194 160.355 157.006 152.738 163.359 144C210.47 79.2015 153.374 -13.4646 74 0.46373z"/>
<path style="fill:#000000; stroke:none;" d="M106 0L106 1C141.546 5.59053 174.409 38.4538 179 74L180 74L180 0L106 0z"/>
<path style="fill:#aaaaff; stroke:none;" d="M33 57L33 58L38 58L33 57z"/>
<path style="fill:#ffffff; stroke:none;" d="M56 67C47.4798 79.1068 36.1855 89.716 26.5725 101C23.1596 105.006 16.9782 109.957 18.3364 115.956C19.2811 120.128 23.3319 120.869 27 120.985C37.4123 121.311 47.6183 121.091 58 122C61.6728 122.322 67.3441 124.227 70.6782 121.972C73.8435 119.832 72.5505 114.98 69.7215 113.178C64.8061 110.048 55.5823 110.795 50 111.039C43.9624 111.304 38.0779 112 32 112C42.4012 100.708 52.4684 89.0419 61.9969 77C65.178 72.9799 70.7759 66.8151 68.3927 61.1481C66.7086 57.1434 61.478 58.1628 58 57.8302C48.7708 56.9478 32.8579 54.7089 24.2284 58.7423C14.6846 63.203 27.2564 68.2332 32 67.9105C35.0195 67.7051 37.9646 67.089 41 67.0147C45.9946 66.8923 51.0039 67 56 67z"/>
<path style="fill:#b1b1ff; stroke:none;" d="M55 57L55 58L61 58L55 57z"/>
<path style="fill:#d0d0ff; stroke:none;" d="M83 57L83 58L87 58L83 57z"/>
<path style="fill:#ffffff; stroke:none;" d="M140 106C134.804 94.8883 131.356 82.8419 128.269 71C127.179 66.8161 126.726 60.3085 121.945 58.6227C115.671 56.4102 113.657 63.6331 112.255 68C108.219 80.5731 105.027 93.4054 101 106L100 106C99.5134 96.4978 95.5813 87.2314 93.5139 78C92.3316 72.7208 92.3627 66.071 90.1073 61.1481C87.7777 56.0636 79.8117 57.5978 79.1875 63.0193C77.5783 76.9964 87.3613 96.7506 91.4344 110C92.9467 114.919 94.2199 123.05 100.999 122.743C106.469 122.496 107.823 116.212 109.309 112C113.235 100.869 117.969 88.8294 119 77C124.483 87.4053 126.529 99.981 130.811 111C132.439 115.188 134.106 121.276 139.042 122.551C146.096 124.373 147.588 117.106 148.989 112C151.995 101.048 154.421 89.9164 157.558 79C159.051 73.8037 162.578 67.5528 161.836 62.044C161.205 57.3526 155.839 55.8731 152.653 59.3187C149.814 62.3881 149.022 68.0523 148.105 72C147.097 76.3383 146.052 80.6713 145.001 85C143.301 92.0003 141.73 98.995 140 106z"/>
<path style="fill:#9191ff; stroke:none;" d="M162 60L162 65L163 65L162 60z"/>
<path style="fill:#aaaaff; stroke:none;" d="M69 62L69 65L70 65L69 62M112.333 66.6667L112.667 67.3333L112.333 66.6667z"/>
<path style="fill:#a5a5ff; stroke:none;" d="M35 67L35 68L49 68L35 67z"/>
<path style="fill:#d3d3ff; stroke:none;" d="M49 67L49 68L56 69L49 67z"/>
<path style="fill:#a3a3ff; stroke:none;" d="M26 68L26 69L31 69L26 68z"/>
<path style="fill:#a2a2ff; stroke:none;" d="M159.333 72.6667L159.667 73.3333L159.333 72.6667z"/>
<path style="fill:#a8a8ff; stroke:none;" d="M93 76L93 79L94 79L93 76z"/>
<path style="fill:#bdbdff; stroke:none;" d="M109.333 77.6667L109.667 78.3333L109.333 77.6667z"/>
<path style="fill:#b5b5ff; stroke:none;" d="M157 78L157 81L158 81L157 78z"/>
<path style="fill:#bbbbff; stroke:none;" d="M131.333 82.6667L131.667 83.3333L131.333 82.6667z"/>
<path style="fill:#9898ff; stroke:none;" d="M117 84L117 87L118 87L117 84z"/>
<path style="fill:#bdbdff; stroke:none;" d="M122.333 85.6667L122.667 86.3333L122.333 85.6667z"/>
<path style="fill:#d0d0ff; stroke:none;" d="M143 90L143 94L144 94L143 90z"/>
<path style="fill:#b6b6ff; stroke:none;" d="M105 91L105 94L106 94L105 91z"/>
<path style="fill:#babaff; stroke:none;" d="M86 92L86 95L87 95L86 92z"/>
<path style="fill:#a2a2ff; stroke:none;" d="M124.333 92.6667L124.667 93.3333L124.333 92.6667z"/>
<path style="fill:#9b9bff; stroke:none;" d="M98 96L98 99L99 99L98 96z"/>
<path style="fill:#a5a5ff; stroke:none;" d="M112.333 101.667L112.667 102.333L112.333 101.667M100 104L100 106L102 104L100 104z"/>
<path style="fill:#000000; stroke:none;" d="M0 106L0 180L74 180L74 179C46.3264 175.426 21.9838 155.135 9.32022 131C5.16182 123.075 4.08822 113.676 0 106M179 106C174.409 141.546 141.546 174.41 106 179L106 180L180 180L180 129L179 106z"/>
<path style="fill:#bcbcff; stroke:none;" d="M91.3333 109.667L91.6667 110.333L91.3333 109.667z"/>
<path style="fill:#a8a8ff; stroke:none;" d="M41 111L41 112L46 112L41 111z"/>
<path style="fill:#8585ff; stroke:none;" d="M17 113L17 117L18 117L17 113z"/>
<path style="fill:#b1b1ff; stroke:none;" d="M72.3333 115.667L72.6667 116.333L72.3333 115.667z"/>
<path style="fill:#9494ff; stroke:none;" d="M107.333 116.667L107.667 117.333L107.333 116.667z"/>
<path style="fill:#d5d5ff; stroke:none;" d="M24 121L24 122L43 122L24 121z"/>
<path style="fill:#aeaeff; stroke:none;" d="M43 121L43 122L54 122L43 121z"/>
</svg>
